<?xml version="1.0" encoding="iso-8859-1"?>
<!-- Generator: Adobe Illustrator 19.0.0, SVG Export Plug-In . SVG Version: 6.00 Build 0)  -->
<svg version="1.1" id="Layer_1" xmlns="http://www.w3.org/2000/svg" xmlns:xlink="http://www.w3.org/1999/xlink" x="0px" y="0px"
	 viewBox="0 0 484.195 484.195" style="enable-background:new 0 0 484.195 484.195;" xml:space="preserve">
<g>
	<g id="XMLID_35_">
		<g>
			<rect x="7.5" y="197.174" style="fill:#AFB6BB;" width="234.597" height="219.623"/>
			<rect x="242.097" y="197.174" style="fill:#AFB6BB;" width="234.597" height="219.623"/>
			<path style="fill:#E7ECED;" d="M476.694,107.329v89.846H7.5v-89.846c0-10.981,8.985-19.966,19.966-19.966h429.263
				C467.71,87.363,476.694,96.347,476.694,107.329z M157.243,162.234c10.981,0,19.966-8.985,19.966-19.966
				s-8.985-19.966-19.966-19.966s-19.966,8.985-19.966,19.966C137.277,153.25,146.262,162.234,157.243,162.234z M77.38,162.234
				c10.981,0,19.966-8.985,19.966-19.966s-8.985-19.966-19.966-19.966s-19.966,8.985-19.966,19.966
				C57.414,153.25,66.399,162.234,77.38,162.234z"/>
			<rect x="371.874" y="416.797" style="fill:#E7ECED;" width="59.897" height="39.931"/>
			<path style="fill:#AFB6BB;" d="M157.243,162.234c-10.981,0-19.966-8.985-19.966-19.966s8.985-19.966,19.966-19.966
				s19.966,8.985,19.966,19.966C177.209,153.25,168.224,162.234,157.243,162.234z"/>
			<rect x="52.423" y="416.797" style="fill:#E7ECED;" width="59.897" height="39.931"/>
			<path style="fill:#AFB6BB;" d="M77.38,122.303c10.981,0,19.966,8.985,19.966,19.966s-8.985,19.966-19.966,19.966
				s-19.966-8.985-19.966-19.966C57.414,131.287,66.399,122.303,77.38,122.303z"/>
		</g>
		<g>
			<path style="fill:#231F20;" d="M484.194,107.329c0-15.145-12.321-27.466-27.466-27.466h-32.431V37.449
				c0-9.64-7.843-17.483-17.483-17.483H77.38c-9.64,0-17.483,7.843-17.483,17.483v42.414H27.466C12.321,79.863,0,92.184,0,107.329
				v316.968h44.923v39.932h74.897v-39.932h244.555v39.932h74.897v-39.932h44.923V107.329H484.194z M74.897,37.449
				c0-1.346,1.137-2.483,2.483-2.483h329.435c1.346,0,2.483,1.137,2.483,2.483v42.414h-334.4V37.449H74.897z M27.466,94.863h429.263
				c6.874,0,12.466,5.592,12.466,12.466v82.346H15v-82.346C15,100.455,20.592,94.863,27.466,94.863z M15,204.674h219.597v204.623H15
				V204.674z M104.82,449.229H59.923v-24.932h44.897V449.229z M424.271,449.229h-44.897v-24.932h44.897V449.229z M249.597,409.297
				V204.674h219.597v204.623H249.597z"/>
			<path style="fill:#231F20;" d="M77.38,169.734c15.145,0,27.466-12.321,27.466-27.466s-12.321-27.466-27.466-27.466
				s-27.466,12.321-27.466,27.466S62.235,169.734,77.38,169.734z M77.38,129.803c6.874,0,12.466,5.592,12.466,12.466
				s-5.592,12.466-12.466,12.466s-12.466-5.592-12.466-12.466S70.506,129.803,77.38,129.803z"/>
			<path style="fill:#231F20;" d="M157.243,169.734c15.145,0,27.466-12.321,27.466-27.466s-12.321-27.466-27.466-27.466
				s-27.465,12.321-27.465,27.466S142.098,169.734,157.243,169.734z M157.243,129.803c6.874,0,12.466,5.592,12.466,12.466
				s-5.592,12.466-12.466,12.466s-12.465-5.592-12.465-12.466S150.369,129.803,157.243,129.803z"/>
			<rect x="346.917" y="114.803" style="fill:#231F20;" width="89.846" height="15"/>
			<rect x="346.917" y="154.734" style="fill:#231F20;" width="89.846" height="15"/>
			<rect x="306.986" y="154.734" style="fill:#231F20;" width="19.966" height="15"/>
			<rect x="267.054" y="154.734" style="fill:#231F20;" width="19.966" height="15"/>
			<rect x="267.054" y="114.803" style="fill:#231F20;" width="19.966" height="15"/>
			<rect x="306.986" y="114.803" style="fill:#231F20;" width="19.966" height="15"/>
			<rect x="37.449" y="224.614" style="fill:#231F20;" width="19.965" height="15"/>
			<rect x="67.397" y="224.614" style="fill:#231F20;" width="19.966" height="15"/>
			<rect x="97.346" y="224.614" style="fill:#231F20;" width="19.966" height="15"/>
			<rect x="127.294" y="224.614" style="fill:#231F20;" width="19.965" height="15"/>
			<rect x="157.243" y="224.614" style="fill:#231F20;" width="19.966" height="15"/>
			<rect x="187.191" y="224.614" style="fill:#231F20;" width="19.966" height="15"/>
			<rect x="37.449" y="254.563" style="fill:#231F20;" width="19.965" height="15"/>
			<rect x="67.397" y="254.563" style="fill:#231F20;" width="19.966" height="15"/>
			<rect x="97.346" y="254.563" style="fill:#231F20;" width="19.966" height="15"/>
			<rect x="127.294" y="254.563" style="fill:#231F20;" width="19.965" height="15"/>
			<rect x="157.243" y="254.563" style="fill:#231F20;" width="19.966" height="15"/>
			<rect x="187.191" y="254.563" style="fill:#231F20;" width="19.966" height="15"/>
			<rect x="37.449" y="284.511" style="fill:#231F20;" width="19.965" height="15"/>
			<rect x="67.397" y="284.511" style="fill:#231F20;" width="19.966" height="15"/>
			<rect x="97.346" y="284.511" style="fill:#231F20;" width="19.966" height="15"/>
			<rect x="127.294" y="284.511" style="fill:#231F20;" width="19.965" height="15"/>
			<rect x="157.243" y="284.511" style="fill:#231F20;" width="19.966" height="15"/>
			<rect x="187.191" y="284.511" style="fill:#231F20;" width="19.966" height="15"/>
			<rect x="37.449" y="314.46" style="fill:#231F20;" width="19.965" height="15"/>
			<rect x="67.397" y="314.46" style="fill:#231F20;" width="19.966" height="15"/>
			<rect x="97.346" y="314.46" style="fill:#231F20;" width="19.966" height="15"/>
			<rect x="127.294" y="314.46" style="fill:#231F20;" width="19.965" height="15"/>
			<rect x="157.243" y="314.46" style="fill:#231F20;" width="19.966" height="15"/>
			<rect x="187.191" y="314.46" style="fill:#231F20;" width="19.966" height="15"/>
			<rect x="37.449" y="344.409" style="fill:#231F20;" width="19.965" height="15"/>
			<rect x="67.397" y="344.409" style="fill:#231F20;" width="19.966" height="15"/>
			<rect x="97.346" y="344.409" style="fill:#231F20;" width="19.966" height="15"/>
			<rect x="127.294" y="344.409" style="fill:#231F20;" width="19.965" height="15"/>
			<rect x="157.243" y="344.409" style="fill:#231F20;" width="19.966" height="15"/>
			<rect x="187.191" y="344.409" style="fill:#231F20;" width="19.966" height="15"/>
			<rect x="37.449" y="374.357" style="fill:#231F20;" width="19.965" height="15"/>
			<rect x="67.397" y="374.357" style="fill:#231F20;" width="19.966" height="15"/>
			<rect x="97.346" y="374.357" style="fill:#231F20;" width="19.966" height="15"/>
			<rect x="127.294" y="374.357" style="fill:#231F20;" width="19.965" height="15"/>
			<rect x="157.243" y="374.357" style="fill:#231F20;" width="19.966" height="15"/>
			<rect x="187.191" y="374.357" style="fill:#231F20;" width="19.966" height="15"/>
			<rect x="277.037" y="224.614" style="fill:#231F20;" width="19.966" height="15"/>
			<rect x="306.986" y="224.614" style="fill:#231F20;" width="19.966" height="15"/>
			<rect x="336.934" y="224.614" style="fill:#231F20;" width="19.966" height="15"/>
			<rect x="366.883" y="224.614" style="fill:#231F20;" width="19.966" height="15"/>
			<rect x="396.832" y="224.614" style="fill:#231F20;" width="19.966" height="15"/>
			<rect x="426.78" y="224.614" style="fill:#231F20;" width="19.966" height="15"/>
			<rect x="277.037" y="254.563" style="fill:#231F20;" width="19.966" height="15"/>
			<rect x="306.986" y="254.563" style="fill:#231F20;" width="19.966" height="15"/>
			<rect x="336.934" y="254.563" style="fill:#231F20;" width="19.966" height="15"/>
			<rect x="366.883" y="254.563" style="fill:#231F20;" width="19.966" height="15"/>
			<rect x="396.832" y="254.563" style="fill:#231F20;" width="19.966" height="15"/>
			<rect x="426.78" y="254.563" style="fill:#231F20;" width="19.966" height="15"/>
			<rect x="277.037" y="284.511" style="fill:#231F20;" width="19.966" height="15"/>
			<rect x="306.986" y="284.511" style="fill:#231F20;" width="19.966" height="15"/>
			<rect x="336.934" y="284.511" style="fill:#231F20;" width="19.966" height="15"/>
			<rect x="366.883" y="284.511" style="fill:#231F20;" width="19.966" height="15"/>
			<rect x="396.832" y="284.511" style="fill:#231F20;" width="19.966" height="15"/>
			<rect x="426.78" y="284.511" style="fill:#231F20;" width="19.966" height="15"/>
			<rect x="277.037" y="314.46" style="fill:#231F20;" width="19.966" height="15"/>
			<rect x="306.986" y="314.46" style="fill:#231F20;" width="19.966" height="15"/>
			<rect x="336.934" y="314.46" style="fill:#231F20;" width="19.966" height="15"/>
			<rect x="366.883" y="314.46" style="fill:#231F20;" width="19.966" height="15"/>
			<rect x="396.832" y="314.46" style="fill:#231F20;" width="19.966" height="15"/>
			<rect x="426.78" y="314.46" style="fill:#231F20;" width="19.966" height="15"/>
			<rect x="277.037" y="344.409" style="fill:#231F20;" width="19.966" height="15"/>
			<rect x="306.986" y="344.409" style="fill:#231F20;" width="19.966" height="15"/>
			<rect x="336.934" y="344.409" style="fill:#231F20;" width="19.966" height="15"/>
			<rect x="366.883" y="344.409" style="fill:#231F20;" width="19.966" height="15"/>
			<rect x="396.832" y="344.409" style="fill:#231F20;" width="19.966" height="15"/>
			<rect x="426.78" y="344.409" style="fill:#231F20;" width="19.966" height="15"/>
			<rect x="277.037" y="374.357" style="fill:#231F20;" width="19.966" height="15"/>
			<rect x="306.986" y="374.357" style="fill:#231F20;" width="19.966" height="15"/>
			<rect x="336.934" y="374.357" style="fill:#231F20;" width="19.966" height="15"/>
			<rect x="366.883" y="374.357" style="fill:#231F20;" width="19.966" height="15"/>
			<rect x="396.832" y="374.357" style="fill:#231F20;" width="19.966" height="15"/>
			<rect x="426.78" y="374.357" style="fill:#231F20;" width="19.966" height="15"/>
		</g>
	</g>
</g>
<g>
</g>
<g>
</g>
<g>
</g>
<g>
</g>
<g>
</g>
<g>
</g>
<g>
</g>
<g>
</g>
<g>
</g>
<g>
</g>
<g>
</g>
<g>
</g>
<g>
</g>
<g>
</g>
<g>
</g>
</svg>
